<mxfile host="app.diagrams.net" modified="2023-11-02T04:39:30.427Z" agent="Mozilla/5.0 (Macintosh; Intel Mac OS X 10_15_7) AppleWebKit/605.1.15 (KHTML, like Gecko) Version/17.1 Safari/605.1.15" version="22.0.8" etag="ChCY7X-8Gz1yqMs0_YsO" type="github">
  <diagram name="Page-1" id="BqmQLXMTxtMvmLLsN8SF">
    <mxGraphModel>
      <root>
        <mxCell id="0" />
        <mxCell id="1" parent="0" />
      </root>
    </mxGraphModel>
  </diagram>
</mxfile>
